<svg width="24" height="24" viewBox="0 0 24 24" fill="none" xmlns="http://www.w3.org/2000/svg">
<path d="M12 5C12.4237 5 12.7671 5.34345 12.7671 5.76712C12.7671 6.19079 12.4237 6.53425 12 6.53425C8.98135 6.53425 6.53425 8.98135 6.53425 12C6.53425 15.0187 8.98135 17.4658 12 17.4658C15.0187 17.4658 17.4658 15.0187 17.4658 12C17.4658 11.5763 17.8092 11.2329 18.2329 11.2329C18.6565 11.2329 19 11.5763 19 12C19 15.866 15.866 19 12 19C8.13401 19 5 15.866 5 12C5 8.13401 8.13401 5 12 5Z" fill="url(#paint0_angular_26553_43131)"/>
<defs>
<radialGradient id="paint0_angular_26553_43131" cx="0" cy="0" r="1" gradientUnits="userSpaceOnUse" gradientTransform="translate(12 12) rotate(-19.29) scale(10.5948)">
<stop stop-color="#616161"/>
<stop offset="1" stop-color="#151515"/>
</radialGradient>
</defs>
</svg>
